# xmcd CD database file
#
# Track frame offsets:
#	150
#	25205
#	49722
#	70422
#	91018
#	105502
#	128001
#	154895
#	180764
#	210243
#
# Disc length: 3512 seconds
#
# Revision: 0
# Processed by: cddbd v1.5.2PL0 Copyright (c) Steve Scherf et al.
# Submitted via: CDex 1.70beta2
#
DISCID=710db60a
DTITLE=John Crocker - Fine and Dandy
DYEAR=1998
DGENRE=Jazz
TTITLE0=Fine and Dandy 
TTITLE1=That Old Feeling
TTITLE2=Coquette
TTITLE3=Ain't Misbehavin'
TTITLE4=Billie's Bounce
TTITLE5='s Wonderful 
TTITLE6=I'll Never Be the Same
TTITLE7=Honey
TTITLE8=It's All Right With Me
TTITLE9=Easy Living/avalon
EXTD=YEAR: 1998
EXTT0=
EXTT1=
EXTT2=
EXTT3=
EXTT4=
EXTT5=
EXTT6=
EXTT7=
EXTT8=
EXTT9=
PLAYORDER=
